{"accessors":[{"bufferView":2,"componentType":5126,"count":598,"max":[0.10682666301727295,0.3186686933040619,0.025183118879795074],"min":[-0.10682487487792969,-0.13847953081130981,-0.03249470144510269],"type":"VEC3"},{"bufferView":2,"byteOffset":7176,"componentType":5126,"count":598,"max":[1,1,1],"min":[-1,-1,-1],"type":"VEC3"},{"bufferView":1,"componentType":5126,"count":598,"max":[0.875,1],"min":[-0.03160923719406128,0.10706200450658798],"type":"VEC2"},{"bufferView":0,"componentType":5125,"count":1122,"type":"SCALAR"}],"asset":{"extras":{"author":"Mckai (https://sketchfab.com/Mckai)","license":"CC-BY-4.0 (http://creativecommons.org/licenses/by/4.0/)","source":"https://sketchfab.com/3d-models/low-poly-eftpos-machine-9bb71bcf899c45e99717ddcebff14b21","title":"Low Poly Eftpos Machine"},"generator":"Sketchfab-12.68.0","version":"2.0"},"bufferViews":[{"buffer":0,"byteLength":4488,"name":"floatBufferViews","target":34963},{"buffer":0,"byteLength":4784,"byteOffset":4488,"byteStride":8,"name":"floatBufferViews","target":34962},{"buffer":0,"byteLength":14352,"byteOffset":9272,"byteStride":12,"name":"floatBufferViews","target":34962}],"buffers":[{"byteLength":23624,"uri":"data:application/octet-stream;base64,"}],"images":[{"uri":"data:application/octet-stream;base64,"}],"materials":[{"doubleSided":true,"emissiveFactor":[1,1,1],"emissiveTexture":{"index":0},"name":"Material.001","pbrMetallicRoughness":{"baseColorTexture":{"index":0},"metallicFactor":0,"roughnessFactor":0.8211145618000169}}],"meshes":[{"name":"Eftpos_Material.001_0","primitives":[{"attributes":{"NORMAL":1,"POSITION":0,"TEXCOORD_0":2},"indices":3,"material":0,"mode":4}]}],"nodes":[{"children":[1],"matrix":[0.004158256109803915,0,0,0,0,9.23318335078508e-19,-0.004158256109803915,0,0,0.004158256109803915,9.23318335078508e-19,0,0,0,0,1],"name":"Sketchfab_model"},{"children":[2],"matrix":[1,0,0,0,0,0,1,0,0,-1,0,0,0,0,0,1],"name":"Eftpos machine.fbx"},{"children":[3],"name":"RootNode"},{"children":[4],"matrix":[-99.99999999998816,0.000029211193476350896,0.00003894143777553012,0,0.0000382946426680573,96.59256350079288,25.881946419560116,0,-0.000030054107567387493,25.88194641957196,-96.59256350079264,0,8.232305526733398,14.217875480651855,-41.324485778808594,1],"name":"Eftpos"},{"mesh":0,"name":"Eftpos_Material.001_0"}],"samplers":[{"magFilter":9729,"minFilter":9987,"wrapS":10497,"wrapT":10497}],"scene":0,"scenes":[{"name":"Sketchfab_Scene","nodes":[0]}],"textures":[{"sampler":0,"source":0}]}